<svg width="146" height="130" viewBox="0 0 146 130" fill="none" xmlns="http://www.w3.org/2000/svg">
<g filter="url(#filter0_d_131_633)">
<path d="M122.947 41.3386C128.686 51.2786 131.556 56.2487 131.556 61.7062C131.556 67.1637 128.686 72.1337 122.947 82.0738L115.613 94.7777C109.874 104.718 107.004 109.688 102.278 112.417C97.5517 115.145 91.8128 115.145 80.335 115.145L65.6658 115.145C54.188 115.145 48.449 115.145 43.7227 112.417C38.9964 109.688 36.127 104.718 30.388 94.7777L23.0534 82.0738C17.3145 72.1337 14.4451 67.1636 14.4451 61.7062C14.4451 56.2487 17.3145 51.2786 23.0534 41.3386L30.3881 28.6347C36.127 18.6946 38.9964 13.7245 43.7227 10.9958C48.4491 8.26706 54.188 8.26706 65.6658 8.26706L80.335 8.26706C91.8128 8.26706 97.5517 8.26706 102.278 10.9958C107.004 13.7245 109.874 18.6946 115.613 28.6347L122.947 41.3386Z" fill="url(#paint0_linear_131_633)"/>
<path d="M129.858 61.7061C129.858 64.1091 129.235 66.4693 127.858 69.5088C126.466 72.5823 124.363 76.227 121.477 81.2256L114.143 93.9287C111.257 98.9273 109.152 102.57 107.186 105.312C105.242 108.025 103.51 109.745 101.429 110.946C99.3481 112.148 96.9922 112.788 93.6714 113.115C90.3136 113.446 86.1069 113.448 80.3354 113.448L65.6655 113.448C59.8937 113.448 55.6865 113.446 52.3286 113.115C49.0081 112.788 46.6527 112.148 44.5718 110.946C42.4907 109.745 40.7588 108.025 38.8149 105.312C36.8493 102.57 34.7439 98.9273 31.8579 93.9287L24.5229 81.2256C21.637 76.227 19.5354 72.5823 18.1431 69.5088C16.7662 66.4692 16.1421 64.1091 16.1421 61.706C16.1421 59.3031 16.7662 56.9428 18.1431 53.9033C19.5353 50.8299 21.6372 47.1858 24.5229 42.1875L31.8579 29.4834C34.7439 24.4848 36.8493 20.8422 38.8149 18.0996C40.7588 15.3875 42.4908 13.6673 44.5718 12.4658C46.6527 11.2644 49.0081 10.6242 52.3286 10.2969C55.6865 9.96587 59.8937 9.96484 65.6655 9.96484L80.3354 9.96484C86.1069 9.96484 90.3136 9.96592 93.6714 10.2969C96.9921 10.6242 99.3481 11.2643 101.429 12.4658C103.51 13.6673 105.242 15.3875 107.186 18.0996C109.152 20.8422 111.257 24.4848 114.143 29.4834L121.477 42.1875C124.363 47.186 126.466 50.8298 127.858 53.9033C129.235 56.9428 129.858 59.3031 129.858 61.7061Z" stroke="#93C5FD" stroke-width="3.3946"/>
</g>
<path d="M58.2239 85.169C54.8559 85.169 51.9509 84.2428 49.5091 82.3904C47.1094 80.5379 45.257 77.9277 43.9518 74.5597C42.6467 71.1495 41.9942 67.1079 41.9942 62.4347C41.9942 57.7616 42.6467 53.741 43.9518 50.3729C45.257 46.9628 47.1094 44.3315 49.5091 42.4791C51.9509 40.6267 54.8559 39.7005 58.2239 39.7005C61.5919 39.7005 64.4969 40.6267 66.9387 42.4791C69.3805 44.3315 71.254 46.9628 72.5591 50.3729C73.8642 53.741 74.5168 57.7616 74.5168 62.4347C74.5168 67.1079 73.8642 71.1495 72.5591 74.5597C71.254 77.9277 69.3805 80.5379 66.9387 82.3904C64.4969 84.2428 61.5919 85.169 58.2239 85.169ZM58.2239 78.9802C61.2972 78.9802 63.6759 77.5488 65.3599 74.686C67.0439 71.781 67.886 67.6973 67.886 62.4347C67.886 57.1722 67.0439 53.1095 65.3599 50.2466C63.6759 47.3417 61.2972 45.8892 58.2239 45.8892C55.1506 45.8892 52.7719 47.3417 51.0879 50.2466C49.4038 53.1095 48.5618 57.1722 48.5618 62.4347C48.5618 67.6973 49.4038 71.781 51.0879 74.686C52.7719 77.5488 55.1506 78.9802 58.2239 78.9802ZM88.626 81.4431V45.5735L90.9626 47.3417L82.2478 51.9517L80.4164 46.0155L92.2256 39.7005H95.5095V81.4431H88.626ZM81.6163 84.5375V77.9698H102.709V84.5375H81.6163Z" fill="white"/>
<defs>
<filter id="filter0_d_131_633" x="0.414294" y="-5.76393" width="145.172" height="134.94" filterUnits="userSpaceOnUse" color-interpolation-filters="sRGB">
<feFlood flood-opacity="0" result="BackgroundImageFix"/>
<feColorMatrix in="SourceAlpha" type="matrix" values="0 0 0 0 0 0 0 0 0 0 0 0 0 0 0 0 0 0 127 0" result="hardAlpha"/>
<feOffset/>
<feGaussianBlur stdDeviation="7.01551"/>
<feComposite in2="hardAlpha" operator="out"/>
<feColorMatrix type="matrix" values="0 0 0 0 0.52549 0 0 0 0 0.937255 0 0 0 0 0.67451 0 0 0 0.25 0"/>
<feBlend mode="normal" in2="BackgroundImageFix" result="effect1_dropShadow_131_633"/>
<feBlend mode="normal" in="SourceGraphic" in2="effect1_dropShadow_131_633" result="shape"/>
</filter>
<linearGradient id="paint0_linear_131_633" x1="73.0004" y1="-2.69726e-06" x2="73.0004" y2="123.412" gradientUnits="userSpaceOnUse">
<stop stop-color="#2196F3"/>
<stop offset="1" stop-color="#1E3A8A"/>
</linearGradient>
</defs>
</svg>
