<svg width="140" height="126" viewBox="0 0 140 126" fill="none" xmlns="http://www.w3.org/2000/svg">
<g filter="url(#filter0_d_131_647)">
<path d="M123.099 46.7973C127.3 54.0733 129.4 57.7113 129.4 61.7062C129.4 65.701 127.3 69.339 123.099 76.615L109.461 100.236C105.26 107.512 103.16 111.15 99.7003 113.148C96.2406 115.145 92.0398 115.145 83.6382 115.145L56.3626 115.145C47.9609 115.145 43.7601 115.145 40.3005 113.148C36.8409 111.15 34.7405 107.512 30.5396 100.236L16.9019 76.615C12.701 69.339 10.6006 65.701 10.6006 61.7062C10.6006 57.7113 12.701 54.0733 16.9019 46.7973L30.5396 23.1759C34.7405 15.8999 36.8409 12.2619 40.3005 10.2645C43.7601 8.26706 47.9609 8.26706 56.3626 8.26706L83.6382 8.26706C92.0398 8.26706 96.2406 8.26706 99.7003 10.2645C103.16 12.2619 105.26 15.8999 109.461 23.1759L123.099 46.7973Z" fill="url(#paint0_linear_131_647)"/>
<path d="M128.158 61.7061C128.158 63.465 127.701 65.1931 126.693 67.418C125.674 69.6677 124.135 72.3355 122.023 75.9941L108.385 99.6152C106.273 103.274 104.731 105.941 103.292 107.948C101.87 109.933 100.602 111.193 99.0786 112.072C97.5555 112.952 95.8312 113.42 93.4009 113.659C90.9429 113.901 87.8632 113.903 83.6382 113.903L56.3628 113.903C52.1378 113.903 49.0581 113.901 46.6001 113.659C44.1694 113.42 42.4447 112.952 40.9214 112.072C39.3981 111.193 38.1304 109.933 36.7075 107.948C35.2687 105.941 33.7282 103.274 31.6157 99.6152L17.978 75.9941C15.8657 72.3355 14.3273 69.6677 13.3081 67.418C12.3002 65.1931 11.8433 63.465 11.8433 61.706C11.8433 59.9471 12.3003 58.22 13.3081 55.9951C14.3272 53.7454 15.8656 51.0778 17.978 47.4189L31.6157 23.7969C33.728 20.1383 35.2688 17.4723 36.7075 15.4648C38.1303 13.4797 39.3982 12.2203 40.9214 11.3408C42.4447 10.4613 44.1693 9.99254 46.6001 9.75293C49.0581 9.51063 52.1378 9.50976 56.3628 9.50976L83.6382 9.50976C87.8632 9.50976 90.9429 9.51063 93.4009 9.75293C95.8314 9.99254 97.5554 10.4614 99.0786 11.3408C100.602 12.2203 101.87 13.4795 103.292 15.4648C104.731 17.4723 106.273 20.138 108.385 23.7969L122.023 47.4189C124.135 51.0777 125.674 53.7454 126.693 55.9951C127.701 58.2199 128.158 59.9471 128.158 61.7061Z" stroke="#4ADE80" stroke-width="2.48481"/>
</g>
<path d="M54.213 85.169C50.8449 85.169 47.94 84.2428 45.4982 82.3904C43.0984 80.5379 41.246 77.9277 39.9409 74.5597C38.6358 71.1495 37.9832 67.1079 37.9832 62.4347C37.9832 57.7616 38.6358 53.741 39.9409 50.3729C41.246 46.9628 43.0984 44.3315 45.4982 42.4791C47.94 40.6267 50.8449 39.7005 54.213 39.7005C57.581 39.7005 60.4859 40.6267 62.9278 42.4791C65.3696 44.3315 67.2431 46.9628 68.5482 50.3729C69.8533 53.741 70.5059 57.7616 70.5059 62.4347C70.5059 67.1079 69.8533 71.1495 68.5482 74.5597C67.2431 77.9277 65.3696 80.5379 62.9278 82.3904C60.4859 84.2428 57.581 85.169 54.213 85.169ZM54.213 78.9802C57.2863 78.9802 59.665 77.5488 61.349 74.686C63.033 71.781 63.875 67.6973 63.875 62.4347C63.875 57.1722 63.033 53.1095 61.349 50.2466C59.665 47.3417 57.2863 45.8892 54.213 45.8892C51.1396 45.8892 48.761 47.3417 47.0769 50.2466C45.3929 53.1095 44.5509 57.1722 44.5509 62.4347C44.5509 67.6973 45.3929 71.781 47.0769 74.686C48.761 77.5488 51.1396 78.9802 54.213 78.9802ZM76.7844 84.5375L74.7004 79.3591L88.2147 64.1398C88.9304 63.382 89.6672 62.5189 90.425 61.5506C91.2249 60.5402 91.9827 59.5087 92.6984 58.4562C93.4141 57.4037 93.9825 56.3723 94.4035 55.3618C94.8666 54.3093 95.0981 53.32 95.0981 52.3938C95.0981 51.0465 94.8245 49.9098 94.2772 48.9836C93.772 48.0153 93.0141 47.2785 92.0037 46.7733C91.0354 46.2681 89.8566 46.0155 88.4673 46.0155C87.2464 46.0155 86.0465 46.3734 84.8677 47.0891C83.6889 47.8048 82.6153 48.8152 81.647 50.1203C80.6787 51.4254 79.9209 52.9411 79.3736 54.6672L74.1321 51.3833C74.8478 48.9415 75.9214 46.8575 77.3528 45.1314C78.8263 43.3632 80.5735 42.016 82.5943 41.0898C84.6572 40.1636 86.8885 39.7005 89.2883 39.7005C91.7722 39.7005 93.9825 40.2267 95.9191 41.2792C97.8557 42.2896 99.3713 43.7211 100.466 45.5735C101.561 47.3838 102.108 49.4888 102.108 51.8886C102.108 52.8569 102.003 53.8462 101.792 54.8566C101.582 55.867 101.245 56.9196 100.782 58.0142C100.319 59.0667 99.7292 60.1823 99.0135 61.3612C98.2978 62.4979 97.4347 63.6977 96.4243 64.9608C95.456 66.2238 94.3403 67.5499 93.0773 68.9392L83.0363 79.8643L81.7733 77.9698H103.497V84.5375H76.7844Z" fill="white"/>
<defs>
<filter id="filter0_d_131_647" x="0.33003" y="-2.00347" width="139.34" height="127.419" filterUnits="userSpaceOnUse" color-interpolation-filters="sRGB">
<feFlood flood-opacity="0" result="BackgroundImageFix"/>
<feColorMatrix in="SourceAlpha" type="matrix" values="0 0 0 0 0 0 0 0 0 0 0 0 0 0 0 0 0 0 127 0" result="hardAlpha"/>
<feOffset/>
<feGaussianBlur stdDeviation="5.13528"/>
<feComposite in2="hardAlpha" operator="out"/>
<feColorMatrix type="matrix" values="0 0 0 0 0.52549 0 0 0 0 0.937255 0 0 0 0 0.67451 0 0 0 0.25 0"/>
<feBlend mode="normal" in2="BackgroundImageFix" result="effect1_dropShadow_131_647"/>
<feBlend mode="normal" in="SourceGraphic" in2="effect1_dropShadow_131_647" result="shape"/>
</filter>
<linearGradient id="paint0_linear_131_647" x1="70.0004" y1="-2.69726e-06" x2="70.0004" y2="123.412" gradientUnits="userSpaceOnUse">
<stop stop-color="#4CAF50"/>
<stop offset="1" stop-color="#166534"/>
</linearGradient>
</defs>
</svg>
