<svg width="140" height="126" viewBox="0 0 140 126" fill="none" xmlns="http://www.w3.org/2000/svg">
<g filter="url(#filter0_d_131_657)">
<path d="M123.099 46.7973C127.3 54.0733 129.4 57.7113 129.4 61.7062C129.4 65.701 127.3 69.339 123.099 76.615L109.461 100.236C105.26 107.512 103.16 111.15 99.7003 113.148C96.2406 115.145 92.0398 115.145 83.6382 115.145L56.3626 115.145C47.9609 115.145 43.7601 115.145 40.3005 113.148C36.8409 111.15 34.7405 107.512 30.5396 100.236L16.9019 76.615C12.701 69.339 10.6006 65.701 10.6006 61.7062C10.6006 57.7113 12.701 54.0733 16.9019 46.7973L30.5396 23.1759C34.7405 15.8999 36.8409 12.2619 40.3005 10.2645C43.7601 8.26706 47.9609 8.26706 56.3626 8.26706L83.6382 8.26706C92.0398 8.26706 96.2406 8.26706 99.7003 10.2645C103.16 12.2619 105.26 15.8999 109.461 23.1759L123.099 46.7973Z" fill="url(#paint0_linear_131_657)"/>
<path d="M128.158 61.7061C128.158 63.465 127.701 65.1931 126.693 67.418C125.674 69.6677 124.135 72.3355 122.023 75.9941L108.385 99.6152C106.273 103.274 104.731 105.941 103.292 107.948C101.87 109.933 100.602 111.193 99.0786 112.072C97.5555 112.952 95.8312 113.42 93.4009 113.659C90.9429 113.901 87.8632 113.903 83.6382 113.903L56.3628 113.903C52.1378 113.903 49.0581 113.901 46.6001 113.659C44.1694 113.42 42.4447 112.952 40.9214 112.072C39.3981 111.193 38.1304 109.933 36.7075 107.948C35.2687 105.941 33.7282 103.274 31.6157 99.6152L17.978 75.9941C15.8657 72.3355 14.3273 69.6677 13.3081 67.418C12.3002 65.1931 11.8433 63.465 11.8433 61.706C11.8433 59.9471 12.3003 58.22 13.3081 55.9951C14.3272 53.7454 15.8656 51.0778 17.978 47.4189L31.6157 23.7969C33.728 20.1383 35.2688 17.4723 36.7075 15.4648C38.1303 13.4797 39.3982 12.2203 40.9214 11.3408C42.4447 10.4613 44.1693 9.99254 46.6001 9.75293C49.0581 9.51063 52.1378 9.50976 56.3628 9.50976L83.6382 9.50976C87.8632 9.50976 90.9429 9.51063 93.4009 9.75293C95.8314 9.99254 97.5554 10.4614 99.0786 11.3408C100.602 12.2203 101.87 13.4795 103.292 15.4648C104.731 17.4723 106.273 20.138 108.385 23.7969L122.023 47.4189C124.135 51.0777 125.674 53.7454 126.693 55.9951C127.701 58.2199 128.158 59.9471 128.158 61.7061Z" stroke="#FFD6BD" stroke-width="2.48481"/>
</g>
<path d="M54.2988 85.169C50.9308 85.169 48.0259 84.2428 45.584 82.3904C43.1843 80.5379 41.3319 77.9277 40.0268 74.5597C38.7217 71.1495 38.0691 67.1079 38.0691 62.4347C38.0691 57.7616 38.7217 53.741 40.0268 50.3729C41.3319 46.9628 43.1843 44.3315 45.584 42.4791C48.0259 40.6267 50.9308 39.7005 54.2988 39.7005C57.6669 39.7005 60.5718 40.6267 63.0136 42.4791C65.4555 44.3315 67.3289 46.9628 68.6341 50.3729C69.9392 53.741 70.5917 57.7616 70.5917 62.4347C70.5917 67.1079 69.9392 71.1495 68.6341 74.5597C67.3289 77.9277 65.4555 80.5379 63.0136 82.3904C60.5718 84.2428 57.6669 85.169 54.2988 85.169ZM54.2988 78.9802C57.3722 78.9802 59.7509 77.5488 61.4349 74.686C63.1189 71.781 63.9609 67.6973 63.9609 62.4347C63.9609 57.1722 63.1189 53.1095 61.4349 50.2466C59.7509 47.3417 57.3722 45.8892 54.2988 45.8892C51.2255 45.8892 48.8468 47.3417 47.1628 50.2466C45.4788 53.1095 44.6368 57.1722 44.6368 62.4347C44.6368 67.6973 45.4788 71.781 47.1628 74.686C48.8468 77.5488 51.2255 78.9802 54.2988 78.9802ZM86.8481 85.169C83.7327 85.169 81.0172 84.4533 78.7017 83.0219C76.4282 81.5904 74.2811 79.1907 72.2603 75.8227L77.5649 72.4757C78.6175 74.0334 79.6489 75.3175 80.6593 76.3279C81.7118 77.2962 82.7854 78.0119 83.88 78.475C84.9746 78.9381 86.1324 79.1697 87.3533 79.1697C88.8268 79.1697 90.1951 78.8118 91.4581 78.0961C92.7211 77.3383 93.7315 76.3068 94.4893 75.0017C95.2471 73.6966 95.626 72.2231 95.626 70.5812C95.626 68.9392 95.3313 67.5499 94.7419 66.4132C94.1525 65.2344 93.2895 64.3503 92.1528 63.7609C91.016 63.1294 89.6688 62.8136 88.1111 62.8136C87.3954 62.8136 86.6376 62.8978 85.8377 63.0662C85.0799 63.1925 84.2589 63.403 83.3748 63.6977C82.4907 63.9503 81.5224 64.2871 80.4699 64.7081L78.5754 59.7192L92.2159 44.6894L93.5421 46.647H74.7232V40.332H100.047L101.31 42.858L86.8481 58.8983L85.2693 57.2564C85.6061 57.088 86.1534 56.9406 86.9113 56.8143C87.7112 56.6459 88.3637 56.5617 88.8689 56.5617C90.7213 56.5617 92.4475 56.9196 94.0473 57.6353C95.6892 58.3089 97.0996 59.2772 98.2784 60.5402C99.4993 61.7611 100.447 63.2136 101.12 64.8976C101.836 66.5395 102.194 68.3077 102.194 70.2023C102.194 73.0651 101.499 75.6332 100.11 77.9066C98.7625 80.138 96.9312 81.9062 94.6156 83.2113C92.3001 84.5164 89.7109 85.169 86.8481 85.169Z" fill="white"/>
<defs>
<filter id="filter0_d_131_657" x="0.33003" y="-2.00347" width="139.34" height="127.419" filterUnits="userSpaceOnUse" color-interpolation-filters="sRGB">
<feFlood flood-opacity="0" result="BackgroundImageFix"/>
<feColorMatrix in="SourceAlpha" type="matrix" values="0 0 0 0 0 0 0 0 0 0 0 0 0 0 0 0 0 0 127 0" result="hardAlpha"/>
<feOffset/>
<feGaussianBlur stdDeviation="5.13528"/>
<feComposite in2="hardAlpha" operator="out"/>
<feColorMatrix type="matrix" values="0 0 0 0 0.52549 0 0 0 0 0.937255 0 0 0 0 0.67451 0 0 0 0.25 0"/>
<feBlend mode="normal" in2="BackgroundImageFix" result="effect1_dropShadow_131_657"/>
<feBlend mode="normal" in="SourceGraphic" in2="effect1_dropShadow_131_657" result="shape"/>
</filter>
<linearGradient id="paint0_linear_131_657" x1="70.0004" y1="-2.69726e-06" x2="70.0004" y2="123.412" gradientUnits="userSpaceOnUse">
<stop stop-color="#FFD973"/>
<stop offset="1" stop-color="#E67E4C"/>
</linearGradient>
</defs>
</svg>
