<svg width="132" height="34" viewBox="0 0 132 34" fill="none" xmlns="http://www.w3.org/2000/svg">
<path d="M19.7772 10.5557L11.4482 27.6719C11.3344 27.9068 11.0166 27.9497 10.8452 27.7517C8.38168 24.9335 1.72704 25.6635 0.0290214 21.6512C-0.059648 21.4414 0.0630121 21.2019 0.286164 21.1517C1.863 20.7955 8.00927 18.9424 19.223 10.1094C19.5274 9.86852 19.9471 10.2069 19.7787 10.5557H19.7772ZM30.2106 13.9148C30.4323 13.6931 30.8875 13.6281 30.9347 14.1719C31.0308 15.2788 29.8175 18.536 28.9515 19.2305C28.7786 19.3694 28.322 19.4478 28.0766 19.3532C26.8929 18.8965 25.7387 17.1719 25.3057 16.9237C25.2126 16.8704 25.0678 16.8793 24.9658 17.0138C24.8964 17.1054 24.1249 18.9601 23.8382 19.5364C23.7688 19.6724 23.7895 19.8335 23.8885 19.9458C23.9905 20.0596 26.5042 22.9931 25.7284 24.4369C24.8683 26.0374 20.5811 27.9822 18.8861 27.8625C18.1427 27.8108 18.2181 27.264 18.8107 26.7467C19.5599 26.0935 22.9471 23.6389 21.725 23.2798C18.3925 22.3014 13.028 31.7625 11.791 33.2684C11.5753 33.5181 11.2058 33.9792 10.7565 33.7841C10.2615 33.5699 10.4226 33.0127 10.5733 32.7039C10.826 32.1837 25.6944 1.63113 26.154 0.682365C26.2382 0.507982 26.3387 0.315862 26.5087 0.222759C26.6934 0.120789 26.9505 0.1666 27.0776 0.33655C27.2298 0.539012 27.1633 0.830143 27.0954 1.07546C26.72 2.44393 25.2185 7.92961 25.1343 8.237C26.0343 7.60006 27.3111 7.63996 28.2229 8.26065C29.1687 8.90498 29.4939 10.0399 29.2353 11.0626C28.9752 12.0838 28.0545 12.904 27.0096 13.0414C27.0968 13.2187 28.1816 15.7709 28.4757 15.8374C28.5407 15.8522 28.6072 15.8626 28.6707 15.8434C28.9722 15.7517 29.8825 14.2429 30.2091 13.9163L30.2106 13.9148ZM23.0742 13.2424L23.0195 13.3015L22.9648 13.2424C21.923 12.1296 20.1422 13.6192 20.9964 14.9138C21.2417 15.2833 21.8328 15.9941 22.3116 16.5542C22.6944 17.002 23.324 17.0049 23.7097 16.5586C24.1914 16.0015 24.787 15.2936 25.0338 14.9242C25.8983 13.6384 24.1264 12.134 23.0742 13.2409V13.2424Z" fill="white"/>
<path d="M46.8855 15.9025H40.055V10.0503H37.9402V23.7512H40.055V17.9374H46.8855V23.7512H49.0002V10.0503H46.8855V15.9025Z" fill="white"/>
<path d="M59.3361 14.6685C58.9119 14.2251 58.4124 13.8764 57.839 13.6207C57.2641 13.3665 56.6449 13.2394 55.9799 13.2394C55.2233 13.2394 54.5213 13.3739 53.8755 13.6399C53.2297 13.9074 52.674 14.2857 52.2115 14.7749C51.7474 15.2641 51.3854 15.8419 51.1253 16.5069C50.8637 17.1719 50.7336 17.9094 50.7336 18.7192C50.7336 19.7374 50.9657 20.6374 51.4282 21.4207C51.8908 22.2039 52.5307 22.8202 53.3464 23.2709C54.1622 23.7216 55.0977 23.9463 56.1558 23.9463C56.639 23.9463 57.1311 23.8783 57.6336 23.7409C58.1361 23.6034 58.6119 23.4172 59.0627 23.1837C59.5134 22.9487 59.8947 22.6753 60.208 22.362L59.1897 20.933C58.6814 21.3763 58.207 21.6837 57.771 21.8537C57.3336 22.0236 56.8607 22.1079 56.3523 22.1079C55.6341 22.1079 55.0016 21.9645 54.4533 21.6778C53.905 21.3911 53.4809 20.9832 53.1809 20.4542C52.9533 20.0552 52.8129 19.6015 52.7583 19.0931H60.6188L60.638 18.2315C60.6513 17.5133 60.5434 16.8512 60.3144 16.2453C60.0853 15.6379 59.7602 15.1133 59.3361 14.67V14.6685ZM54.1977 15.5005C54.6809 15.233 55.2735 15.0985 55.9784 15.0985C56.4218 15.0985 56.8326 15.1961 57.2109 15.3926C57.5893 15.5877 57.9026 15.8567 58.1508 16.1951C58.3991 16.535 58.5425 16.9192 58.5809 17.3493V17.4867H52.8321C52.8942 17.1897 52.9829 16.9177 53.0996 16.6739C53.3479 16.1581 53.7129 15.7665 54.1962 15.499L54.1977 15.5005Z" fill="white"/>
<path d="M69.8953 15.0409C69.6884 14.7084 69.4298 14.4114 69.1224 14.1513C68.7899 13.8705 68.4012 13.6518 67.9579 13.4951C67.5145 13.3385 67.0254 13.2601 66.4904 13.2601C65.5904 13.2601 64.7776 13.4892 64.0534 13.9458C63.3293 14.4025 62.7544 15.032 62.3303 15.8345C61.9062 16.637 61.6934 17.5547 61.6934 18.5847C61.6934 19.6148 61.9017 20.5162 62.32 21.3246C62.7382 22.1345 63.2953 22.7729 63.9943 23.2428C64.6919 23.7128 65.4648 23.9478 66.3145 23.9478C66.8096 23.9478 67.284 23.8694 67.7332 23.7128C68.184 23.5561 68.5948 23.3478 68.9657 23.0862C69.3381 22.8246 69.644 22.529 69.8849 22.1951C69.8879 22.1906 69.8908 22.1862 69.8953 22.1803V23.7512H71.9302V13.4744H69.8953V15.0394V15.0409ZM69.5716 20.3951C69.3042 20.9241 68.9362 21.3379 68.4662 21.6379C67.9963 21.9379 67.4554 22.0887 66.8421 22.0887C66.2288 22.0887 65.7101 21.9394 65.2475 21.6379C64.7835 21.3379 64.4185 20.9241 64.151 20.3951C63.8835 19.866 63.749 19.2631 63.749 18.5847C63.749 17.9064 63.882 17.3256 64.151 16.804C64.4185 16.2823 64.7835 15.8714 65.2475 15.5715C65.7101 15.2715 66.2421 15.1207 66.8421 15.1207C67.4421 15.1207 67.9963 15.2715 68.4662 15.5715C68.9362 15.8714 69.3042 16.2823 69.5716 16.804C69.8391 17.3256 69.9721 17.9197 69.9721 18.5847C69.9721 19.2498 69.8376 19.8675 69.5716 20.3951Z" fill="white"/>
<path d="M85.6353 10.8528H83.6196V13.4759H81.4871V15.4326H83.6196V23.7512H85.6353V15.4326H88.0235V13.4759H85.6353V10.8528Z" fill="white"/>
<path d="M98.9819 15.9025H92.1514V10.0503H90.0366V23.7512H92.1514V17.9375H98.9819V23.7512H101.097V10.0503H98.9819V15.9025Z" fill="white"/>
<path d="M111.432 14.6685C111.008 14.2251 110.509 13.8764 109.935 13.6207C109.361 13.3665 108.741 13.2394 108.076 13.2394C107.32 13.2394 106.618 13.3739 105.972 13.6399C105.326 13.9074 104.77 14.2857 104.308 14.7749C103.844 15.2641 103.482 15.8419 103.222 16.5069C102.96 17.1719 102.83 17.9094 102.83 18.7192C102.83 19.7374 103.062 20.6374 103.525 21.4207C103.987 22.2039 104.627 22.8202 105.443 23.2709C106.259 23.7216 107.194 23.9463 108.252 23.9463C108.735 23.9463 109.228 23.8783 109.73 23.7409C110.232 23.6034 110.708 23.4172 111.159 23.1837C111.61 22.9487 111.991 22.6753 112.304 22.362L111.286 20.933C110.778 21.3763 110.303 21.6837 109.867 21.8537C109.43 22.0236 108.957 22.1079 108.449 22.1079C107.731 22.1079 107.098 21.9645 106.55 21.6778C106.001 21.3911 105.577 20.9832 105.277 20.4542C105.05 20.0552 104.909 19.6015 104.855 19.0931H112.715L112.734 18.2315C112.748 17.5133 112.64 16.8512 112.411 16.2453C112.182 15.6379 111.857 15.1133 111.432 14.67V14.6685ZM106.294 15.5005C106.777 15.233 107.37 15.0985 108.075 15.0985C108.518 15.0985 108.929 15.1961 109.307 15.3926C109.686 15.5877 109.999 15.8567 110.247 16.1951C110.496 16.535 110.639 16.9192 110.677 17.3493V17.4867H104.929C104.991 17.1897 105.079 16.9177 105.196 16.6739C105.444 16.1581 105.809 15.7665 106.293 15.499L106.294 15.5005Z" fill="white"/>
<path d="M130.405 15.8537C129.948 15.0513 129.324 14.4187 128.535 13.9547C127.746 13.4922 126.855 13.2601 125.863 13.2601C124.872 13.2601 123.961 13.4922 123.172 13.9547C122.383 14.4187 121.759 15.0513 121.303 15.8537C120.846 16.6562 120.617 17.5739 120.617 18.6039C120.617 19.634 120.845 20.5517 121.303 21.3542C121.759 22.1566 122.383 22.7891 123.172 23.2532C123.961 23.7172 124.858 23.9478 125.863 23.9478C126.868 23.9478 127.746 23.7157 128.535 23.2532C129.324 22.7906 129.948 22.1566 130.405 21.3542C130.861 20.5517 131.09 19.6355 131.09 18.6039C131.09 17.5724 130.861 16.6562 130.405 15.8537ZM128.643 20.3951C128.37 20.9241 127.99 21.3409 127.508 21.6483C127.025 21.9556 126.477 22.1079 125.863 22.1079C125.25 22.1079 124.699 21.9542 124.21 21.6483C123.72 21.3424 123.339 20.9241 123.064 20.3951C122.791 19.866 122.659 19.269 122.673 18.6039C122.659 17.9389 122.789 17.3419 123.064 16.8128C123.338 16.2838 123.72 15.867 124.21 15.5596C124.699 15.2537 125.25 15.1 125.863 15.1C126.477 15.1 127.025 15.2508 127.508 15.5508C127.991 15.8508 128.37 16.2645 128.643 16.7936C128.916 17.3227 129.048 17.9256 129.035 18.6039C129.048 19.269 128.918 19.866 128.643 20.3951Z" fill="white"/>
<path d="M79.9694 13.3089C79.7861 13.2779 79.5955 13.2601 79.396 13.2601C78.9127 13.2601 78.4472 13.3769 77.9965 13.6119C77.5457 13.8468 77.1482 14.166 76.8024 14.571C76.5822 14.8296 76.4019 15.1059 76.2645 15.4015V13.4744H74.228V23.7512H76.2645V18.0749C76.2645 17.6966 76.3354 17.3478 76.4802 17.0271C76.6236 16.7079 76.8157 16.4271 77.0581 16.1847C77.2989 15.9439 77.5797 15.7547 77.9004 15.6173C78.2196 15.4798 78.5566 15.4118 78.9083 15.4118C79.0915 15.4118 79.2763 15.4355 79.4654 15.4798C79.6487 15.5242 79.8172 15.5788 79.9708 15.6409V13.3059L79.9694 13.3089Z" fill="white"/>
<path d="M119.829 13.3089C119.646 13.2779 119.456 13.2601 119.256 13.2601C118.773 13.2601 118.307 13.3769 117.857 13.6119C117.406 13.8468 117.008 14.166 116.663 14.571C116.442 14.8296 116.262 15.1059 116.125 15.4015V13.4744H114.088V23.7512H116.125V18.0749C116.125 17.6966 116.196 17.3478 116.34 17.0271C116.484 16.7079 116.676 16.4271 116.918 16.1847C117.161 15.9424 117.44 15.7547 117.761 15.6173C118.08 15.4798 118.417 15.4118 118.768 15.4118C118.952 15.4118 119.136 15.4355 119.326 15.4798C119.509 15.5242 119.677 15.5788 119.831 15.6409V13.3059L119.829 13.3089Z" fill="white"/>
</svg>
